<svg version="1" xmlns="http://www.w3.org/2000/svg" width="945" height="124"><path d="M1 47.7v48l13.8.7c31.3 1.5 48.9-4.7 59.6-20.9a51.3 51.3 0 0 0-2-58.9A49.5 49.5 0 0 0 51.1 2.9C45.4 1 41.5.6 22.8.2L1-.2v47.9zm42.7-29.2a31 31 0 0 1 17.4 14.2c1.8 3.6 2.5 6.9 2.7 13.3.6 14.9-4.6 24.3-16.6 30.2-6.1 3-7.6 3.3-17.9 3.7l-11.3.3V48.7c0-24.3.3-31.7 1.3-32.1a81 81 0 0 1 24.4 1.9zM491 48v48h60V80h-43V0h-17v48z"/><path fill="#5f5f5f" d="M259.4 18.4c-.3.8-.4 15.7-.2 33.2l.3 31.9 2.5 4.4c3.8 6.8 6.8 8.5 15.4 8.9 5.8.3 8.3 0 12-1.6 2.5-1.2 4.6-2.6 4.6-3.1 0-.6-.7-2.8-1.6-4.9l-1.5-3.9-3.7 1.8c-4.2 2.2-5.7 2.3-9.9.9-5.6-2-6.7-5.6-7.1-24.3l-.4-16.7H293.1l-.3-5.3-.3-5.2-11.2-.3-11.3-.3V17h-5c-3.4 0-5.2.5-5.6 1.4zM757.4 18.4c-.3.8-.4 15.7-.2 33.2l.3 31.9 2.5 4.4c3.8 6.8 6.8 8.5 15.4 8.9 5.8.3 8.3 0 12-1.6 2.5-1.2 4.6-2.6 4.6-3.1 0-.6-.7-2.8-1.6-4.9l-1.5-3.9-3.7 1.8c-4.2 2.2-5.7 2.3-9.9.9-5.6-2-6.6-5.5-7.1-24.2l-.5-16.8h23.4l-.3-5.3-.3-5.2-11.2-.3-11.3-.3V17h-5c-3.4 0-5.2.5-5.6 1.4zM132.5 33.5a27.6 27.6 0 0 0-12.6 4.5l-4.4 2.9-.5-3.2c-.5-3.1-.7-3.2-5.7-3.5l-5.3-.3V96h11V51.8l3.1-2.9c5.5-5.2 16.5-6.3 21.1-2.2 4.2 3.7 4.8 7.1 4.8 28.8V96h11V51.8l3.1-2.9c5.8-5.4 16.7-6.3 21.5-1.8 3.7 3.5 4.4 7.9 4.4 29.1V96h11V73.2c0-24.2-.6-28.4-4.7-33.2-3.9-4.7-7.9-6.4-15.3-6.3-7.6 0-13.1 2.1-17.7 6.5l-3.2 3.1-2.2-2.7a20.3 20.3 0 0 0-5.7-4.5 30 30 0 0 0-13.7-2.6zM334.6 34.5a22 22 0 0 0-6.7 4.1l-2.9 2.8V34h-11v62h11V74.3c0-21.6 0-21.6 2.5-24.9 3.4-4.5 9-6.2 14.6-4.5 2.3.7 4.2 1.1 4.4.9.9-1.2 3.7-10 3.2-10.4a30 30 0 0 0-9.7-2.3c-.8 0-3.2.6-5.4 1.4zM631.5 34.7c-2.8 1-6.5 2.9-8.3 4.1l-3.2 2.3v-7.2l-5.2.3-5.3.3v89l5.3.3 5.2.3v-15c0-8.3.2-15.1.4-15.1l4.2 1.7a42 42 0 0 0 26.2-.7c13.4-5.8 21.3-22.3 18.2-37.6-.7-3.3-1.9-7.3-2.7-8.9a36.5 36.5 0 0 0-12.6-12.7 33.7 33.7 0 0 0-22.2-1.1zm14.8 10.7c4.9 2 9.3 7.7 10.6 13.6 2.6 12.2-3.1 23.6-13.5 27-4.7 1.6-14.2.8-19.1-1.7l-3.8-1.8-.3-15.1-.3-15.2 3.3-2.7c1.8-1.6 4.7-3.4 6.3-4.1a27.5 27.5 0 0 1 16.8 0zM703.2 33.9c-1.8.5-5.3 1.6-7.8 2.6-4.9 1.8-5 2.2-2.4 9 .9 2.4 1.1 2.5 3.8 1.1a29 29 0 0 1 22.4-1.1c2.2.9 4.8 7.6 4.8 12.5v4.1l-3.2-1.8a35.8 35.8 0 0 0-23.3.4c-9.9 5.2-13.5 13.6-10.5 24.5a19.7 19.7 0 0 0 12.5 11.4c6.7 1.2 14.1 0 19.5-3.4l5-3.1V93c0 3 .1 3 5.6 3h5.5l-.3-24.3c-.3-23.7-.4-24.3-2.8-28.7-3.5-6.2-8.9-9-18.3-9.5-3.9-.2-8.7 0-10.5.4zm17.2 35.6c3.4 1.4 3.6 1.8 3.6 5.9 0 3.7-.5 4.8-3 6.9-4 3.4-9.4 5-14.4 4.4-9.7-1.3-11.7-12.8-3.1-17.5 2.9-1.6 12.7-1.4 16.9.3zM829.7 34a31.8 31.8 0 0 0-23.6 37.4c1.3 7.5 3.6 12 8.6 16.9 15.3 15.4 43.3 11.3 53-7.7 3.5-6.8 4.3-19 1.8-26.5A35 35 0 0 0 852.9 36a46.1 46.1 0 0 0-23.2-2zM848 46.2c2.6 1.4 5.7 4.1 7.5 6.6 2.5 3.6 3 5.5 3.3 11.5.3 6.1 0 7.9-2.1 11.7a20.8 20.8 0 0 1-36.8-.3c-1.7-3.3-2-5.4-1.7-11.8.3-6.8.7-8.2 3.4-11.6a22.2 22.2 0 0 1 16.9-8.3c3.3 0 6.7.8 9.5 2.2zM221.7 34.6c-.4.4-.7 14.4-.7 31.1V96h12l-.2-30.8-.3-30.7-5-.3c-2.8-.2-5.4 0-5.8.4zM369 65v31h11V34h-11v31zM411 65v31h11V34h-11v31zM570.7 34.6c-.4.4-.7 14.4-.7 31.1V96h12l-.2-30.8-.3-30.7-5-.3c-2.8-.2-5.4 0-5.8.4zM881 35.2c.1.7 6.3 14.8 13.9 31.3l13.9 30h8.5l13.3-30.4A765.8 765.8 0 0 0 944 34.8c0-.5-2.6-.8-5.7-.6l-5.8.3-5.9 13.5c-3.2 7.4-7.5 17.6-9.5 22.7l-3.7 9.1-5.3-12.6-10.2-23-4.8-10.2h-6c-4.2 0-6.1.4-6.1 1.2z"/></svg>