<svg xmlns="http://www.w3.org/2000/svg" width="198" height="26"><path d="M.2 10v10l2.9.2c6.6.3 10.2-1 12.5-4.4 2.5-3.8 2.3-8.7-.4-12.3A10.4 10.4 0 0 0 10.7.6c-1.2-.4-2-.5-6-.6H.3zm9-6.1c1.5.5 2.8 1.5 3.6 3 .4.7.5 1.4.6 2.7 0 3.2-1 5.1-3.5 6.4-1.3.6-1.6.7-3.8.8H3.8v-6.6c0-5 0-6.6.2-6.7a17 17 0 0 1 5.2.4zm93.7 6.2v10h12.5v-3.3h-9V0H103zm0 0"/><path d="M54.4 3.9v13.6l.5 1c.8 1.4 1.4 1.7 3.2 1.8 1.2 0 1.8 0 2.5-.3l1-.7-.3-1-.4-.8-.7.3c-.9.5-1.2.5-2.1.2-1.2-.4-1.4-1.1-1.5-5V9.3h4.8v-1l-.1-1.2H56.6V3.5h-1c-.8 0-1.2 0-1.2.3zm104.3 0v13.6l.5 1c.8 1.4 1.5 1.7 3.3 1.8 1.2 0 1.7 0 2.5-.3l1-.7-.4-1-.3-.8-.8.3c-.9.5-1.2.5-2 .2-1.2-.4-1.4-1.1-1.5-5l-.1-3.6h4.9l-.1-1V7.1h-4.8V3.5h-1c-.7 0-1.1 0-1.2.3zM27.7 7c-.9.1-1.8.4-2.6 1l-.9.6-.1-.7c-.1-.6-.2-.7-1.2-.7h-1.1v13H24v-9.3l.6-.6c1.2-1.1 3.5-1.4 4.5-.5.8.8 1 1.5 1 6v4.3h2.3V11l.6-.6c1.2-1.2 3.5-1.4 4.5-.4.8.7 1 1.6 1 6v4.2h2.3v-4.8c0-5-.2-6-1-7-.8-.9-1.7-1.3-3.2-1.2A5 5 0 0 0 33 8.4l-.7.7-.5-.6c-.3-.4-.7-.7-1.2-1-.9-.3-1.9-.5-2.8-.5zm42.4.2c-.5.2-1 .5-1.4.9l-.6.6V7h-2.3v13H68v-4.5c0-4.5 0-4.5.5-5.2.7-1 1.9-1.3 3-1l1 .2c.2-.2.8-2 .7-2.2-.7-.3-1.4-.4-2-.5a5 5 0 0 0-1.2.3zm62.2 0l-1.7 1-.7.4V7.1h-1l-1.2.1V26h1.1l1.1.1V23v-3.2l1 .4c1.8.5 3.7.5 5.5-.2 2.8-1.2 4.4-4.7 3.8-7.9l-.6-1.8c-.6-1.1-1.5-2-2.6-2.7a7 7 0 0 0-4.7-.2zm3.1 2.3c1 .4 2 1.6 2.2 2.9.6 2.5-.6 5-2.8 5.6-1 .4-3 .2-4-.3l-.8-.4v-3.2l-.1-3.2.7-.5c.4-.4 1-.7 1.3-.9 1.1-.3 2.4-.3 3.5 0zm12-2.4c-.4.1-1.2.3-1.7.6-1 .3-1 .4-.5 1.8.2.5.2.6.8.3a6 6 0 0 1 4.7-.3c.5.2 1 1.6 1 2.7v.8l-.7-.4a7.5 7.5 0 0 0-4.9.1c-2 1.1-2.8 2.9-2.2 5.2.5 1.1 1.5 2 2.7 2.4 1.4.2 3 0 4-.8l1.1-.6v.6c0 .6 0 .6 1.2.6h1.1v-5c-.1-5-.1-5.2-.6-6-.8-1.4-1.9-2-3.9-2h-2.2zm3.5 7.5c.8.3.8.3.8 1.2 0 .8-.1 1-.6 1.5-.9.7-2 1-3 .9-2-.3-2.5-2.7-.7-3.7.6-.3 2.7-.3 3.5 0zM174 7a6.7 6.7 0 0 0-5 7.9c.3 1.5.8 2.5 1.8 3.5 3.2 3.2 9 2.4 11.1-1.6.7-1.4.9-4 .4-5.6-.7-1.6-2-3-3.5-3.8a9.7 9.7 0 0 0-4.9-.4zm3.8 2.6c.5.3 1.2.8 1.5 1.4.6.7.7 1.1.7 2.4.1 1.3 0 1.6-.4 2.4a4.4 4.4 0 0 1-7.7 0c-.4-.7-.4-1.2-.4-2.5.1-1.4.2-1.7.7-2.4 1-1.1 2.2-1.8 3.6-1.8.7 0 1.4.2 2 .5zM46.5 7.3c-.1 0-.2 3-.2 6.5V20h2.5V7.2h-2.3zm30.8 6.3v6.5h2.3v-13h-2.3zm8.8 0v6.5h2.3v-13h-2.3zm33.5-6.3c-.1 0-.2 3-.2 6.5V20h2.5V7.2h-2.3zm65 0l2.9 6.6 3 6.3h1.7L195 14l2.8-6.6c0-.1-.6-.2-1.2-.1h-1.2l-1.3 2.9-2 4.7-.7 2-1.1-2.7-2.2-4.8-1-2.2H186c-1 0-1.3.1-1.3.3zm0 0" fill="#5f5f5f"/></svg>